<?xml version="1.0" encoding="UTF-8" standalone="no"?>
<!DOCTYPE svg PUBLIC "-//W3C//DTD SVG 1.1//EN" "http://www.w3.org/Graphics/SVG/1.1/DTD/svg11.dtd">
<svg class="svg-logo" version="1.1" xmlns="http://www.w3.org/2000/svg" xmlns:xlink="http://www.w3.org/1999/xlink" preserveAspectRatio="xMidYMid meet" viewBox="0 0 1150 400"><defs><path d="M49.41 175.3L110.76 82.84L110.76 175.3L49.41 175.3ZM138.1 2.85C131.26 0.86 123.71 3.62 119.73 9.59C108.23 26.9 16.25 165.42 4.75 182.73C1.44 188.22 1.14 194.28 3.74 199.48C3.77 199.54 3.98 199.95 4.01 200.01C7.27 205.52 12.54 208.51 18.61 208.51C24.76 208.51 55.47 208.51 110.76 208.51C110.76 232.27 110.76 245.47 110.76 248.11C111.46 257.52 118.73 265.08 127.95 266.2C134.78 267.44 142.17 263.81 146.2 258.34C148.69 254.96 150.05 250.82 150.05 246.6C150.05 223.81 150.05 41.46 150.05 18.66C150.05 11.15 145.37 4.93 138.1 2.85" id="bRig5QNBP"></path><path d="M484.37 113.11C484.28 113.15 484.17 113.17 484.08 113.2C481.36 113.96 478.49 114.4 475.55 114.51C474.9 114.46 474.27 114.46 473.64 114.46C471.27 114.46 459.41 114.46 438.07 114.46C438.07 94.27 438.07 83.05 438.07 80.81C438.01 79.89 437.96 78.97 437.96 78.04C437.96 77.11 438.01 76.22 438.07 75.32C438.07 73.07 438.07 61.8 438.07 41.52C459.82 41.52 471.9 41.52 474.31 41.52C475.09 41.52 475.88 41.54 476.66 41.6C476.86 41.6 477.03 41.63 477.23 41.65C477.66 41.67 478.12 41.71 478.56 41.78C478.95 41.8 479.32 41.84 479.69 41.91C479.82 41.93 479.95 41.95 480.08 41.97C497.4 44.75 510.66 59.82 510.66 78.04C510.66 94.69 499.56 108.74 484.37 113.11M549.57 69.96C549.57 69.94 549.55 69.9 549.57 69.88C548.4 58.68 544.83 48.23 539.34 39.02C531.74 26.21 520.52 15.82 507.04 9.33C506.91 9.26 506.78 9.22 506.65 9.15C496.6 4.72 486.41 2.31 476.33 2.02C475.66 2 474.98 2 474.31 2C468.71 2 423.93 2 418.33 2C407.19 2 398.77 10.44 398.77 21.68C398.77 44.17 398.77 224.11 398.77 246.6C398.77 257.84 407.19 266.29 418.33 266.29C429.61 266.29 438.07 257.84 438.07 246.6C438.07 240.42 438.07 209.49 438.07 153.82C459.82 153.82 471.9 153.82 474.31 153.82C476.29 153.82 478.27 153.74 480.25 153.58C480.47 153.56 480.69 153.54 480.88 153.52C481.56 153.45 482.23 153.39 482.91 153.3C483.34 153.26 483.8 153.21 484.24 153.15C485.08 153.04 485.93 152.91 486.78 152.75C487.81 152.6 488.83 152.4 489.83 152.18C490.87 151.97 491.89 151.73 492.94 151.46C493.77 151.27 494.59 151.04 495.42 150.8C495.55 150.76 495.66 150.74 495.79 150.69C496.92 150.37 498.04 150.02 499.17 149.65C509.11 146.19 518.1 140.68 525.67 133.66C539 121.27 547.89 104.12 549.64 84.86C549.81 82.6 549.88 80.28 549.88 77.93C549.88 75.21 549.77 72.54 549.57 69.96" id="b1ob1YckFa"></path><path d="M350.89 183.72C351.02 185.9 351.08 188.13 351.08 190.41C351.08 192.75 351.02 195.02 350.84 197.25C349.12 216.54 340.22 233.7 326.86 246.12C319.98 252.51 311.95 257.6 303.09 261.08C293.93 264.53 284.7 266.29 275.54 266.29C269.94 266.29 225.14 266.29 219.54 266.29C208.39 266.29 199.97 257.85 199.97 246.6C199.97 238.73 204.08 232.17 210.38 228.96C213.1 227.56 216.19 226.8 219.54 226.8C225.06 226.8 269.23 226.8 274.75 226.8C275.38 226.8 275.99 226.8 276.65 226.84C277.93 226.8 279.22 226.69 280.48 226.49C281.04 226.42 281.63 226.33 282.2 226.2C282.72 226.14 283.25 226.03 283.77 225.9C299.81 222.11 311.75 207.64 311.75 190.36C311.75 172.74 299.35 158.05 282.85 154.62C282.81 154.62 282.79 154.59 282.74 154.59C281.96 154.44 281.15 154.28 280.35 154.19C279.52 154.06 278.67 153.97 277.83 153.93C277.3 153.89 276.8 153.87 276.28 153.87C275.38 153.78 274.46 153.81 273.56 153.78C254.84 153.13 237.87 145.67 225 133.75C210.01 119.87 200.61 99.97 200.61 77.84C200.61 42.11 225.13 12.17 258.19 4.06C258.52 3.97 258.84 3.88 259.17 3.82C259.95 3.64 260.74 3.49 261.52 3.34C266.18 2.44 270.86 2 275.54 2C281.14 2 325.9 2 331.49 2C342.66 2 351.08 10.53 351.08 21.84C351.08 29.42 347.23 35.74 341.29 39.02C338.44 40.62 335.11 41.52 331.49 41.52C325.9 41.52 281.14 41.52 275.54 41.52C275.36 41.52 275.19 41.52 275.04 41.54C274.86 41.54 274.69 41.56 274.51 41.56C255.32 42.54 240.04 58.48 240.04 78.04C240.04 96.68 253.97 112.06 271.93 114.25C273.41 114.43 274.89 114.53 276.39 114.53C276.8 114.53 277.21 114.53 277.63 114.51C286.96 114.73 296.45 116.83 305.9 120.69C305.99 120.74 306.07 120.78 306.16 120.8C320.55 127.24 332.56 138.01 340.55 151.48C346.03 160.71 349.63 171.19 350.78 182.4C350.82 182.86 350.84 183.3 350.89 183.72" id="c2haTNxnmv"></path><path d="M937.39 246.6C937.39 257.85 928.97 266.29 917.8 266.29C912.2 266.29 867.42 266.29 861.82 266.29C861.04 266.29 860.25 266.29 859.47 266.24C859.45 266.24 859.24 266.24 859.21 266.24C828.67 265.19 802.75 245.95 791.81 218.94C791.76 218.77 791.68 218.62 791.61 218.44C788.95 211.48 787.28 204.47 786.61 197.45C786.54 196.66 786.48 195.88 786.43 195.09C786.39 194.32 786.35 193.53 786.32 192.75C786.3 192.02 786.28 191.3 786.28 190.58C786.28 179.32 786.28 89.19 786.28 77.93C786.28 77.14 786.3 76.35 786.32 75.58C786.35 74.91 786.37 74.21 786.41 73.53C786.5 71.83 786.65 70.12 786.87 68.46C787.67 62.2 789.26 55.97 791.63 49.78C791.68 49.65 791.74 49.52 791.79 49.39C800.82 27.02 820.12 9.96 843.84 4.14C844.19 4.05 844.52 3.97 844.82 3.9C845.61 3.73 846.41 3.58 847.2 3.42C850.63 2.72 854.18 2.26 857.8 2.09C858.58 2.05 859.34 2.02 860.12 2.02C860.69 2 861.26 2 861.82 2C867.4 2 912.06 2 917.64 2C928.9 2 937.39 10.44 937.39 21.68C937.39 29.53 933.3 36.07 927.05 39.31C924.33 40.73 921.19 41.52 917.8 41.52C912.21 41.52 867.54 41.52 861.95 41.52C861.5 41.52 861.06 41.54 860.6 41.54C860.43 41.54 860.25 41.56 860.08 41.56C841.8 42.5 827.09 56.97 825.72 75.26C825.72 75.47 825.67 75.71 825.67 75.93C825.63 76.57 825.61 77.2 825.61 77.84C825.61 89.1 825.61 179.19 825.61 190.45C825.61 191.2 825.63 191.96 825.69 192.7C825.69 192.86 825.72 192.99 825.72 193.14C825.76 193.69 825.8 194.23 825.87 194.76C827.87 211.38 840.95 224.56 857.49 226.58C857.93 226.64 858.34 226.66 858.78 226.71C858.97 226.71 859.14 226.73 859.34 226.73C859.97 226.77 860.62 226.8 861.28 226.8C861.91 226.8 862.54 226.8 863.2 226.84C863.46 226.84 863.72 226.82 863.96 226.8C869.32 226.8 912.27 226.8 917.64 226.8C921.11 226.8 924.29 227.56 927.03 228.96C933.34 232.15 937.39 238.62 937.39 246.6" id="a1Xe0rgMYK"></path><path d="M1115.74 226.81L1023.54 226.81L1023.54 153.82C1045.28 153.82 1057.36 153.82 1059.78 153.82C1071.03 153.82 1079.52 145.37 1079.52 134.15C1079.52 122.93 1071.03 114.47 1059.78 114.47C1057.36 114.47 1045.28 114.47 1023.54 114.47L1023.54 41.51C1078.86 41.51 1109.6 41.51 1115.74 41.51C1126.92 41.51 1135.34 32.97 1135.34 21.68C1135.34 10.45 1126.92 2.01 1115.74 2.01C1104.55 2.01 1014.99 2.01 1003.79 2.01C992.64 2.01 984.22 10.45 984.22 21.68C984.22 44.17 984.22 224.12 984.22 246.61C984.22 257.85 992.64 266.28 1003.79 266.28C1014.99 266.28 1104.55 266.28 1115.74 266.28C1126.92 266.28 1135.34 257.85 1135.34 246.61C1135.34 235.33 1126.92 226.81 1115.74 226.81" id="atN9birOF"></path><path d="M626.27 178.38L651.34 92.2L676.39 178.38L626.27 178.38ZM736.38 245.5C736.05 242.28 735.19 239.13 734.2 236.06C731.71 228.33 729.6 220.43 727.33 212.61C724.62 203.29 721.92 193.97 719.21 184.65C715.97 173.51 712.73 162.36 709.5 151.22C706.05 139.35 702.6 127.49 699.16 115.62C695.82 104.13 692.48 92.64 689.15 81.15C686.24 71.13 683.33 61.12 680.42 51.1C678.25 43.66 676.09 36.22 673.93 28.78C672.09 22.42 671 15.28 666.84 9.96C663.31 5.44 658.12 2.27 652.32 2.02C644.41 1.67 636.85 6.27 633.55 13.5C631.14 18.79 630.04 24.72 628.42 30.3C627.39 33.87 626.35 37.45 625.31 41.02C622.59 50.39 619.87 59.76 617.14 69.13C616.15 72.54 608.23 99.81 607.24 103.22C603.71 115.38 600.17 127.55 596.64 139.71C593.22 151.49 589.79 163.27 586.37 175.05C583.4 185.27 580.44 195.48 577.47 205.7C575.3 213.16 573.14 220.61 570.97 228.07C569.33 233.73 566.7 239.67 566.31 245.6C566.29 245.93 566.26 246.28 566.26 246.6C566.26 246.64 566.26 246.9 566.26 246.93C566.26 258.83 577.76 267.98 589.25 266.05C594.72 265.14 599.64 261.76 602.6 257.07C604.31 254.36 605.06 251.29 605.94 248.24C606.57 246.1 611.57 228.92 612.19 226.77C613.21 223.29 614.22 219.8 615.24 216.32C622.46 216.32 680.23 216.32 687.45 216.32C688.94 221.36 690.43 226.39 691.91 231.43C693.79 237.81 695.69 244.17 697.56 250.54C700.69 261.23 711.03 268.79 722.21 265.59C727.54 264.06 732.07 260.21 734.53 255.21C735.76 252.7 736.65 249.76 736.5 246.95C736.47 246.47 736.44 245.98 736.38 245.5" id="aSNiNhbPy"></path><path d="M310.04 385.09C319.07 385.09 324.08 385.09 325.09 385.09C336.78 385.01 344.64 381.9 348.66 375.76C350.77 372.8 352.22 369.34 353.01 365.39C353.54 363.45 353.87 361.42 354.04 359.27C354.11 357.09 354.15 354.95 354.15 352.85C354.32 343.5 352.48 335.82 348.66 329.81C346.63 326.88 343.69 324.62 339.83 323.01C335.92 321.41 331.01 320.6 325.09 320.6C324.08 320.6 319.07 320.6 310.04 320.6L310.04 385.09ZM294.78 307.79C316.47 307.79 328.52 307.79 330.93 307.79C344.29 307.96 354.1 312.33 360.34 320.92C366.39 329.42 369.41 340.07 369.41 352.85C369.41 365.54 366.39 376.15 360.34 384.65C354.1 393.33 344.29 397.74 330.93 397.91C328.52 397.91 316.47 397.91 294.78 397.91" id="b72d4Qdro"></path><path d="M404.79 307.79L467.57 307.79L467.57 321.34L420.05 321.34L420.05 345.08L464.05 345.08L464.05 357.9L420.05 357.9L420.05 384.35L468.47 384.35L468.47 397.91L404.79 397.91" id="a1c7wBM9p"></path><path d="M513.07 367.95C513.15 374.86 515.35 379.77 519.68 382.69C523.8 385.81 529.01 387.33 535.29 387.25C542.02 387.17 546.83 385.73 549.71 382.93C552.47 380.26 553.85 377.15 553.85 373.62C553.78 370.16 553.06 367.59 551.7 365.9C550.3 364.22 548.63 363.09 546.67 362.51C540.93 360.46 532.21 357.96 520.52 355.04C513.18 352.74 508.11 349.54 505.32 345.42C502.49 341.39 501.11 336.97 501.19 332.16C501.35 323.07 504.74 316.33 511.35 311.92C517.71 307.73 524.96 305.63 533.09 305.63C542.56 305.63 550.49 308.03 556.85 312.83C563.18 317.71 566.43 324.88 566.59 334.35C565.07 334.35 552.86 334.35 551.33 334.35C550.93 328.56 549.01 324.43 545.58 321.96C542.23 319.62 537.87 318.45 532.48 318.45C530.77 318.45 528.97 318.61 527.1 318.94C525.31 319.27 523.59 319.9 521.96 320.85C520.32 321.67 519.01 322.84 518.01 324.37C516.98 325.97 516.45 327.9 516.45 330.17C516.45 333.29 517.43 335.78 519.39 337.63C521.26 339.48 523.76 340.88 526.87 341.83C533.73 343.6 542.15 345.9 552.13 348.74C557.91 350.67 562.2 353.76 565 357.99C567.75 362.27 569.13 366.86 569.13 371.75C568.97 381.79 565.37 389.02 558.35 393.46C551.4 397.86 543.39 400.06 534.33 400.06C524.11 400.06 515.6 397.46 508.81 392.25C501.95 387.13 498.27 379.03 497.8 367.95" id="blj9uYMwQ"></path><path d="M603.82 397.91L619.08 397.91L619.08 307.79L603.82 307.79L603.82 397.91Z" id="l1B9xnkE6B"></path><path d="M733.9 397.91L724.17 397.91C722.77 391.55 721.99 388.01 721.83 387.3C714.32 396.06 705.54 400.31 695.51 400.06C682.41 399.82 672.18 395.15 664.82 386.07C657.42 377.12 653.72 366.04 653.72 352.85C653.72 339.53 657.42 328.42 664.82 319.5C672.18 310.42 682.41 305.79 695.51 305.63C705.3 305.63 713.65 308.2 720.58 313.34C727.51 318.48 731.63 326.18 732.94 336.46C731.45 336.46 719.51 336.46 718.01 336.46C717.14 330.43 714.6 325.92 710.43 322.9C706.13 319.93 701.15 318.45 695.5 318.45C686.3 318.61 679.59 322.15 675.37 329.07C671.03 335.82 668.89 343.75 668.98 352.85C668.89 361.78 671.03 369.67 675.37 376.5C679.59 383.5 686.3 387.09 695.5 387.25C711.43 386.76 719.59 378.49 719.99 362.46C718.44 362.46 710.69 362.46 696.76 362.46L696.76 350.51L733.9 350.51" id="b8EPJuf0x"></path><path d="M771.8 307.79L787.97 307.79L827.79 374.21L828.03 374.21L828.03 307.79L842.55 307.79L842.55 397.91L826.44 397.91L786.68 331.61L786.32 331.61L786.32 397.91L771.8 397.91" id="c2iRFUX8F"></path></defs><g><g><g><use xlink:href="#bRig5QNBP" opacity="0.6" fill="#fff" fill-opacity="1"></use><g><use xlink:href="#bRig5QNBP" opacity="0.5" fill-opacity="0" stroke="#000000" stroke-width="1" stroke-opacity="0"></use></g></g><g><use xlink:href="#b1ob1YckFa" opacity="1" fill="#ffffff" fill-opacity="1"></use><g><use xlink:href="#b1ob1YckFa" opacity="1" fill-opacity="0" stroke="#000000" stroke-width="1" stroke-opacity="0"></use></g></g><g><use xlink:href="#c2haTNxnmv" opacity="1" fill="#ffffff" fill-opacity="1"></use><g><use xlink:href="#c2haTNxnmv" opacity="1" fill-opacity="0" stroke="#000000" stroke-width="1" stroke-opacity="0"></use></g></g><g><use xlink:href="#a1Xe0rgMYK" opacity="1" fill="#ffffff" fill-opacity="1"></use><g><use xlink:href="#a1Xe0rgMYK" opacity="1" fill-opacity="0" stroke="#000000" stroke-width="1" stroke-opacity="0"></use></g></g><g><use xlink:href="#atN9birOF" opacity="1" fill="#ffffff" fill-opacity="1"></use><g><use xlink:href="#atN9birOF" opacity="1" fill-opacity="0" stroke="#000000" stroke-width="1" stroke-opacity="0"></use></g></g><g><use xlink:href="#aSNiNhbPy" opacity="1" fill="#ffffff" fill-opacity="1"></use><g><use xlink:href="#aSNiNhbPy" opacity="1" fill-opacity="0" stroke="#000000" stroke-width="1" stroke-opacity="0"></use></g></g><g><use xlink:href="#b72d4Qdro" opacity="1" fill="#ffffff" fill-opacity="1"></use><g><use xlink:href="#b72d4Qdro" opacity="1" fill-opacity="0" stroke="#000000" stroke-width="1" stroke-opacity="0"></use></g></g><g><use xlink:href="#a1c7wBM9p" opacity="1" fill="#ffffff" fill-opacity="1"></use><g><use xlink:href="#a1c7wBM9p" opacity="1" fill-opacity="0" stroke="#000000" stroke-width="1" stroke-opacity="0"></use></g></g><g><use xlink:href="#blj9uYMwQ" opacity="1" fill="#ffffff" fill-opacity="1"></use><g><use xlink:href="#blj9uYMwQ" opacity="1" fill-opacity="0" stroke="#000000" stroke-width="1" stroke-opacity="0"></use></g></g><g><use xlink:href="#l1B9xnkE6B" opacity="1" fill="#ffffff" fill-opacity="1"></use><g><use xlink:href="#l1B9xnkE6B" opacity="1" fill-opacity="0" stroke="#000000" stroke-width="1" stroke-opacity="0"></use></g></g><g><use xlink:href="#b8EPJuf0x" opacity="1" fill="#ffffff" fill-opacity="1"></use><g><use xlink:href="#b8EPJuf0x" opacity="1" fill-opacity="0" stroke="#000000" stroke-width="1" stroke-opacity="0"></use></g></g><g><use xlink:href="#c2iRFUX8F" opacity="1" fill="#ffffff" fill-opacity="1"></use><g><use xlink:href="#c2iRFUX8F" opacity="1" fill-opacity="0" stroke="#000000" stroke-width="1" stroke-opacity="0"></use></g></g></g></g></svg>
