<?xml version="1.0" encoding="UTF-8" standalone="no"?>
<!DOCTYPE svg PUBLIC "-//W3C//DTD SVG 1.1//EN" "http://www.w3.org/Graphics/SVG/1.1/DTD/svg11.dtd">
<svg class="svg-logo" version="1.1" xmlns="http://www.w3.org/2000/svg" xmlns:xlink="http://www.w3.org/1999/xlink" preserveAspectRatio="xMidYMid meet" viewBox="0 0 1150 400" ><defs><path d="M47.41 173.3L108.76 80.84L108.76 173.3L47.41 173.3ZM136.1 0.85C129.26 -1.14 121.71 1.62 117.73 7.59C106.23 24.9 14.25 163.42 2.75 180.73C-0.56 186.22 -0.86 192.28 1.74 197.48C1.77 197.54 1.98 197.95 2.01 198.01C5.27 203.52 10.54 206.51 16.61 206.51C22.76 206.51 53.47 206.51 108.76 206.51C108.76 230.27 108.76 243.47 108.76 246.11C109.46 255.52 116.73 263.08 125.95 264.2C132.78 265.44 140.17 261.81 144.2 256.34C146.69 252.96 148.05 248.82 148.05 244.6C148.05 221.81 148.05 39.46 148.05 16.66C148.05 9.15 143.37 2.93 136.1 0.85" id="b2hvaRIKRQ"></path><path d="M482.37 111.11C482.28 111.15 482.17 111.17 482.08 111.2C479.36 111.96 476.49 112.4 473.55 112.51C472.9 112.46 472.27 112.46 471.64 112.46C469.27 112.46 457.41 112.46 436.07 112.46C436.07 92.27 436.07 81.05 436.07 78.81C436.01 77.89 435.96 76.97 435.96 76.04C435.96 75.11 436.01 74.22 436.07 73.32C436.07 71.07 436.07 59.8 436.07 39.52C457.82 39.52 469.9 39.52 472.31 39.52C473.09 39.52 473.88 39.54 474.66 39.6C474.86 39.6 475.03 39.63 475.23 39.65C475.66 39.67 476.12 39.71 476.56 39.78C476.95 39.8 477.32 39.84 477.69 39.91C477.82 39.93 477.95 39.95 478.08 39.97C495.4 42.75 508.66 57.82 508.66 76.04C508.66 92.69 497.56 106.74 482.37 111.11M547.57 67.96C547.57 67.94 547.55 67.9 547.57 67.88C546.4 56.68 542.83 46.23 537.34 37.02C529.74 24.21 518.52 13.82 505.04 7.33C504.91 7.26 504.78 7.22 504.65 7.15C494.6 2.72 484.41 0.31 474.33 0.02C473.66 0 472.98 0 472.31 0C466.71 0 421.93 0 416.33 0C405.19 0 396.76 8.44 396.76 19.68C396.76 42.17 396.76 222.11 396.76 244.6C396.76 255.84 405.19 264.29 416.33 264.29C427.61 264.29 436.07 255.84 436.07 244.6C436.07 238.42 436.07 207.49 436.07 151.82C457.82 151.82 469.9 151.82 472.31 151.82C474.29 151.82 476.27 151.74 478.25 151.58C478.47 151.56 478.69 151.54 478.88 151.52C479.56 151.45 480.23 151.39 480.91 151.3C481.34 151.26 481.8 151.21 482.24 151.15C483.08 151.04 483.93 150.91 484.78 150.75C485.81 150.6 486.83 150.4 487.83 150.18C488.87 149.97 489.89 149.73 490.94 149.46C491.77 149.27 492.59 149.04 493.42 148.8C493.55 148.76 493.66 148.74 493.79 148.69C494.92 148.37 496.03 148.02 497.17 147.65C507.11 144.19 516.1 138.68 523.67 131.66C537 119.27 545.89 102.12 547.64 82.86C547.81 80.6 547.88 78.28 547.88 75.93C547.88 73.21 547.77 70.54 547.57 67.96" id="c2N5PzuqZ3"></path><path d="M348.89 181.72C349.02 183.9 349.08 186.13 349.08 188.41C349.08 190.75 349.02 193.02 348.84 195.25C347.12 214.54 338.22 231.7 324.86 244.12C317.98 250.51 309.95 255.6 301.09 259.08C291.93 262.53 282.7 264.29 273.54 264.29C267.94 264.29 223.14 264.29 217.54 264.29C206.39 264.29 197.97 255.85 197.97 244.6C197.97 236.73 202.08 230.17 208.38 226.96C211.1 225.56 214.19 224.8 217.54 224.8C223.06 224.8 267.23 224.8 272.75 224.8C273.38 224.8 273.99 224.8 274.65 224.84C275.93 224.8 277.22 224.69 278.48 224.49C279.04 224.42 279.63 224.33 280.2 224.2C280.72 224.14 281.25 224.03 281.77 223.9C297.81 220.11 309.75 205.64 309.75 188.36C309.75 170.74 297.35 156.05 280.85 152.62C280.81 152.62 280.79 152.59 280.74 152.59C279.96 152.44 279.15 152.28 278.35 152.19C277.52 152.06 276.67 151.97 275.83 151.93C275.3 151.89 274.8 151.87 274.28 151.87C273.38 151.78 272.46 151.81 271.56 151.78C252.84 151.13 235.87 143.67 223 131.75C208.01 117.87 198.61 97.97 198.61 75.84C198.61 40.11 223.13 10.17 256.19 2.06C256.52 1.97 256.84 1.88 257.17 1.82C257.95 1.64 258.74 1.49 259.52 1.34C264.18 0.44 268.86 0 273.54 0C279.14 0 323.9 0 329.49 0C340.66 0 349.08 8.53 349.08 19.84C349.08 27.42 345.23 33.74 339.29 37.02C336.44 38.62 333.11 39.52 329.49 39.52C323.9 39.52 279.14 39.52 273.54 39.52C273.36 39.52 273.19 39.52 273.04 39.54C272.86 39.54 272.69 39.56 272.51 39.56C253.32 40.54 238.04 56.48 238.04 76.04C238.04 94.68 251.97 110.06 269.93 112.25C271.41 112.43 272.89 112.53 274.39 112.53C274.8 112.53 275.21 112.53 275.63 112.51C284.97 112.73 294.45 114.83 303.9 118.69C303.99 118.74 304.07 118.78 304.16 118.8C318.55 125.24 330.56 136.01 338.55 149.48C344.03 158.71 347.63 169.19 348.78 180.4C348.82 180.86 348.84 181.3 348.89 181.72" id="f26R3514Y"></path><path d="M935.39 244.6C935.39 255.85 926.97 264.29 915.8 264.29C910.2 264.29 865.42 264.29 859.83 264.29C859.04 264.29 858.25 264.29 857.47 264.24C857.45 264.24 857.24 264.24 857.21 264.24C826.67 263.19 800.75 243.95 789.81 216.94C789.76 216.77 789.68 216.62 789.61 216.44C786.96 209.48 785.28 202.47 784.61 195.45C784.54 194.66 784.48 193.88 784.43 193.09C784.39 192.32 784.35 191.53 784.32 190.75C784.3 190.02 784.28 189.3 784.28 188.58C784.28 177.32 784.28 87.19 784.28 75.93C784.28 75.14 784.3 74.35 784.32 73.58C784.35 72.91 784.37 72.21 784.41 71.53C784.5 69.83 784.65 68.12 784.87 66.46C785.67 60.2 787.26 53.97 789.63 47.78C789.68 47.65 789.74 47.52 789.79 47.39C798.82 25.02 818.12 7.96 841.84 2.14C842.19 2.05 842.52 1.97 842.82 1.9C843.61 1.73 844.41 1.58 845.2 1.42C848.63 0.72 852.18 0.26 855.8 0.09C856.58 0.05 857.34 0.02 858.12 0.02C858.69 0 859.26 0 859.83 0C865.41 0 910.06 0 915.64 0C926.9 0 935.39 8.44 935.39 19.68C935.39 27.53 931.3 34.07 925.05 37.31C922.33 38.73 919.19 39.52 915.8 39.52C910.22 39.52 865.54 39.52 859.96 39.52C859.5 39.52 859.06 39.54 858.6 39.54C858.43 39.54 858.25 39.56 858.08 39.56C839.8 40.5 825.09 54.97 823.72 73.26C823.72 73.47 823.67 73.71 823.67 73.93C823.63 74.57 823.61 75.2 823.61 75.84C823.61 87.1 823.61 177.19 823.61 188.45C823.61 189.2 823.63 189.96 823.7 190.7C823.7 190.86 823.72 190.99 823.72 191.14C823.76 191.69 823.81 192.23 823.87 192.76C825.87 209.38 838.95 222.56 855.49 224.58C855.93 224.64 856.34 224.66 856.78 224.71C856.97 224.71 857.14 224.73 857.34 224.73C857.97 224.77 858.62 224.8 859.28 224.8C859.91 224.8 860.54 224.8 861.2 224.84C861.46 224.84 861.72 224.82 861.96 224.8C867.32 224.8 910.27 224.8 915.64 224.8C919.11 224.8 922.29 225.56 925.03 226.96C931.34 230.15 935.39 236.62 935.39 244.6" id="cQabIY4tO"></path><path d="M1113.74 224.81L1021.54 224.81L1021.54 151.82C1043.28 151.82 1055.36 151.82 1057.78 151.82C1069.03 151.82 1077.52 143.37 1077.52 132.15C1077.52 120.93 1069.03 112.47 1057.78 112.47C1055.36 112.47 1043.28 112.47 1021.54 112.47L1021.54 39.51C1076.86 39.51 1107.6 39.51 1113.74 39.51C1124.92 39.51 1133.34 30.97 1133.34 19.68C1133.34 8.45 1124.92 0.01 1113.74 0.01C1102.55 0.01 1012.99 0.01 1001.79 0.01C990.64 0.01 982.22 8.45 982.22 19.68C982.22 42.17 982.22 222.12 982.22 244.61C982.22 255.85 990.64 264.28 1001.79 264.28C1012.99 264.28 1102.55 264.28 1113.74 264.28C1124.92 264.28 1133.34 255.85 1133.34 244.61C1133.34 233.33 1124.92 224.81 1113.74 224.81" id="dbQOIx4YC"></path><path d="M624.27 176.38L649.34 90.2L674.39 176.38L624.27 176.38ZM734.38 243.5C734.05 240.28 733.19 237.13 732.2 234.06C729.7 226.33 727.6 218.43 725.33 210.61C722.62 201.29 719.92 191.97 717.2 182.65C713.97 171.51 710.73 160.36 707.5 149.22C704.05 137.35 700.6 125.49 697.16 113.62C693.82 102.13 690.48 90.64 687.15 79.15C684.24 69.13 681.33 59.12 678.42 49.1C676.25 41.66 674.09 34.22 671.93 26.78C670.09 20.42 669 13.28 664.84 7.96C661.31 3.44 656.12 0.27 650.32 0.02C642.41 -0.33 634.85 4.27 631.55 11.5C629.14 16.79 628.04 22.72 626.42 28.3C625.38 31.87 624.35 35.45 623.31 39.02C620.59 48.39 617.87 57.76 615.14 67.13C614.15 70.54 606.23 97.81 605.24 101.22C601.71 113.38 598.17 125.55 594.64 137.71C591.22 149.49 587.79 161.27 584.37 173.05C581.4 183.27 578.44 193.48 575.47 203.7C573.3 211.16 571.14 218.61 568.97 226.07C567.32 231.73 564.7 237.67 564.31 243.6C564.29 243.93 564.26 244.28 564.26 244.6C564.26 244.64 564.26 244.9 564.26 244.93C564.26 256.83 575.76 265.98 587.25 264.05C592.71 263.14 597.64 259.76 600.6 255.07C602.31 252.36 603.06 249.29 603.94 246.24C604.57 244.1 609.57 226.92 610.19 224.77C611.21 221.29 612.22 217.8 613.24 214.32C620.46 214.32 678.23 214.32 685.45 214.32C686.94 219.36 688.43 224.39 689.91 229.43C691.79 235.81 693.69 242.17 695.55 248.54C698.69 259.23 709.03 266.79 720.21 263.59C725.54 262.06 730.07 258.21 732.53 253.21C733.76 250.7 734.65 247.76 734.5 244.95C734.47 244.47 734.43 243.98 734.38 243.5" id="c1nZ8Pk5EA"></path><path d="M308.04 383.09C317.07 383.09 322.08 383.09 323.09 383.09C334.78 383.01 342.64 379.9 346.66 373.76C348.77 370.8 350.22 367.34 351.01 363.39C351.54 361.45 351.87 359.42 352.03 357.27C352.11 355.09 352.15 352.95 352.15 350.85C352.32 341.5 350.48 333.82 346.66 327.81C344.63 324.88 341.69 322.62 337.83 321.01C333.92 319.41 329.01 318.6 323.09 318.6C322.08 318.6 317.07 318.6 308.04 318.6L308.04 383.09ZM292.78 305.79C314.47 305.79 326.52 305.79 328.93 305.79C342.29 305.96 352.1 310.33 358.34 318.92C364.39 327.42 367.41 338.07 367.41 350.85C367.41 363.54 364.39 374.15 358.34 382.65C352.1 391.33 342.29 395.74 328.93 395.91C326.52 395.91 314.47 395.91 292.78 395.91" id="dgN1qdCuh"></path><path d="M402.79 305.79L465.58 305.79L465.58 319.34L418.06 319.34L418.06 343.08L462.05 343.08L462.05 355.9L418.06 355.9L418.06 382.35L466.47 382.35L466.47 395.91L402.79 395.91" id="eb5vjXFFO"></path><path d="M511.07 365.95C511.15 372.86 513.35 377.77 517.68 380.69C521.8 383.81 527.01 385.33 533.29 385.25C540.02 385.17 544.83 383.73 547.71 380.93C550.47 378.26 551.85 375.15 551.85 371.62C551.78 368.16 551.06 365.59 549.7 363.9C548.3 362.22 546.63 361.09 544.67 360.51C538.93 358.46 530.21 355.96 518.52 353.04C511.18 350.74 506.11 347.54 503.32 343.42C500.49 339.39 499.11 334.97 499.19 330.16C499.35 321.07 502.74 314.33 509.35 309.92C515.71 305.73 522.96 303.63 531.09 303.63C540.56 303.63 548.49 306.03 554.85 310.83C561.18 315.71 564.43 322.88 564.59 332.35C563.07 332.35 550.86 332.35 549.33 332.35C548.93 326.56 547.01 322.43 543.59 319.96C540.23 317.62 535.87 316.45 530.48 316.45C528.77 316.45 526.97 316.61 525.1 316.94C523.31 317.27 521.59 317.9 519.96 318.85C518.32 319.67 517.01 320.84 516.01 322.37C514.98 323.97 514.45 325.9 514.45 328.17C514.45 331.29 515.43 333.78 517.39 335.63C519.26 337.48 521.76 338.88 524.87 339.83C531.73 341.6 540.15 343.9 550.13 346.74C555.91 348.67 560.2 351.76 563 355.99C565.75 360.27 567.13 364.86 567.13 369.75C566.97 379.79 563.37 387.02 556.35 391.46C549.4 395.86 541.39 398.06 532.33 398.06C522.11 398.06 513.6 395.46 506.81 390.25C499.95 385.13 496.27 377.03 495.8 365.95" id="ggWqlALv"></path><path d="M601.82 395.91L617.08 395.91L617.08 305.79L601.82 305.79L601.82 395.91Z" id="bZ2JNrCjv"></path><path d="M731.9 395.91L722.17 395.91C720.77 389.55 719.99 386.01 719.83 385.3C712.31 394.06 703.54 398.31 693.51 398.06C680.41 397.82 670.18 393.15 662.82 384.07C655.42 375.12 651.72 364.04 651.72 350.85C651.72 337.53 655.42 326.42 662.82 317.5C670.18 308.42 680.41 303.79 693.51 303.63C703.3 303.63 711.65 306.2 718.58 311.34C725.51 316.48 729.63 324.18 730.94 334.46C729.45 334.46 717.5 334.46 716.01 334.46C715.13 328.43 712.61 323.92 708.43 320.9C704.13 317.93 699.15 316.45 693.5 316.45C684.3 316.61 677.59 320.15 673.37 327.07C669.02 333.82 666.89 341.75 666.98 350.85C666.89 359.78 669.02 367.67 673.37 374.5C677.59 381.5 684.3 385.09 693.5 385.25C709.43 384.76 717.59 376.49 717.99 360.46C716.44 360.46 708.69 360.46 694.75 360.46L694.75 348.51L731.9 348.51" id="a1h8NRjmeR"></path><path d="M769.8 305.79L785.97 305.79L825.79 372.21L826.03 372.21L826.03 305.79L840.56 305.79L840.56 395.91L824.44 395.91L784.68 329.61L784.32 329.61L784.32 395.91L769.8 395.91" id="b2ipJxIqN0"></path></defs><g><g><g><use xlink:href="#b2hvaRIKRQ" opacity="0.5" fill="#000000" fill-opacity="1"></use><g><use xlink:href="#b2hvaRIKRQ" opacity="0.5" fill-opacity="0" stroke="#000000" stroke-width="1" stroke-opacity="0"></use></g></g><g><use xlink:href="#c2N5PzuqZ3" opacity="1" fill="#000000" fill-opacity="1"></use><g><use xlink:href="#c2N5PzuqZ3" opacity="1" fill-opacity="0" stroke="#000000" stroke-width="1" stroke-opacity="0"></use></g></g><g><use xlink:href="#f26R3514Y" opacity="1" fill="#000000" fill-opacity="1"></use><g><use xlink:href="#f26R3514Y" opacity="1" fill-opacity="0" stroke="#000000" stroke-width="1" stroke-opacity="0"></use></g></g><g><use xlink:href="#cQabIY4tO" opacity="1" fill="#000000" fill-opacity="1"></use><g><use xlink:href="#cQabIY4tO" opacity="1" fill-opacity="0" stroke="#000000" stroke-width="1" stroke-opacity="0"></use></g></g><g><use xlink:href="#dbQOIx4YC" opacity="1" fill="#000000" fill-opacity="1"></use><g><use xlink:href="#dbQOIx4YC" opacity="1" fill-opacity="0" stroke="#000000" stroke-width="1" stroke-opacity="0"></use></g></g><g><use xlink:href="#c1nZ8Pk5EA" opacity="1" fill="#000000" fill-opacity="1"></use><g><use xlink:href="#c1nZ8Pk5EA" opacity="1" fill-opacity="0" stroke="#000000" stroke-width="1" stroke-opacity="0"></use></g></g><g><use xlink:href="#dgN1qdCuh" opacity="1" fill="#000000" fill-opacity="1"></use><g><use xlink:href="#dgN1qdCuh" opacity="1" fill-opacity="0" stroke="#000000" stroke-width="1" stroke-opacity="0"></use></g></g><g><use xlink:href="#eb5vjXFFO" opacity="1" fill="#000000" fill-opacity="1"></use><g><use xlink:href="#eb5vjXFFO" opacity="1" fill-opacity="0" stroke="#000000" stroke-width="1" stroke-opacity="0"></use></g></g><g><use xlink:href="#ggWqlALv" opacity="1" fill="#000000" fill-opacity="1"></use><g><use xlink:href="#ggWqlALv" opacity="1" fill-opacity="0" stroke="#000000" stroke-width="1" stroke-opacity="0"></use></g></g><g><use xlink:href="#bZ2JNrCjv" opacity="1" fill="#000000" fill-opacity="1"></use><g><use xlink:href="#bZ2JNrCjv" opacity="1" fill-opacity="0" stroke="#000000" stroke-width="1" stroke-opacity="0"></use></g></g><g><use xlink:href="#a1h8NRjmeR" opacity="1" fill="#000000" fill-opacity="1"></use><g><use xlink:href="#a1h8NRjmeR" opacity="1" fill-opacity="0" stroke="#000000" stroke-width="1" stroke-opacity="0"></use></g></g><g><use xlink:href="#b2ipJxIqN0" opacity="1" fill="#000000" fill-opacity="1"></use><g><use xlink:href="#b2ipJxIqN0" opacity="1" fill-opacity="0" stroke="#000000" stroke-width="1" stroke-opacity="0"></use></g></g></g></g></svg>
